PathFileType	4	(X/Y/Z)	/tmp/tmpiz60ez2f/Subject7/MarkerData/Take_2_segment_4.trc
DataRate	CameraRate	NumFrames	NumMarkers	Units	OrigDataRate	OrigDataStartFrame	OrigNumFrames
50.003	50.003	11	39	m	50.003	500	2000
Frame#	Time	C7			CLAV			LANK			LASI			LBHD			LELB			LFHD			LFIN			LFRM			LHEE			LKNE			LPSI			LSHO			LTHI			LTIB			LTOE			LUPA			LWRA			LWRB			RANK			RASI			RBAK			RBHD			RELB			RFHD			RFIN			RFRM			RHEE			RKNE			RPSI			RSHO			RTHI			RTIB			RTOE			RUPA			RWRA			RWRB			STRN			T10		
		X1	Y1	Z1	X2	Y2	Z2	X3	Y3	Z3	X4	Y4	Z4	X5	Y5	Z5	X6	Y6	Z6	X7	Y7	Z7	X8	Y8	Z8	X9	Y9	Z9	X10	Y10	Z10	X11	Y11	Z11	X12	Y12	Z12	X13	Y13	Z13	X14	Y14	Z14	X15	Y15	Z15	X16	Y16	Z16	X17	Y17	Z17	X18	Y18	Z18	X19	Y19	Z19	X20	Y20	Z20	X21	Y21	Z21	X22	Y22	Z22	X23	Y23	Z23	X24	Y24	Z24	X25	Y25	Z25	X26	Y26	Z26	X27	Y27	Z27	X28	Y28	Z28	X29	Y29	Z29	X30	Y30	Z30	X31	Y31	Z31	X32	Y32	Z32	X33	Y33	Z33	X34	Y34	Z34	X35	Y35	Z35	X36	Y36	Z36	X37	Y37	Z37	X38	Y38	Z38	X39	Y39	Z39

501	170.019	0.682973	1.23151	0.17903	0.567004	1.13752	0.188271	0.621174	0.0809286	0.330218	0.657067	0.690759	0.282941	0.696417	1.37832	0.182829	0.495355	1.0594	0.561971	0.556172	1.40253	0.304267	0.225987	1.24147	0.621008	0.373245	1.12064	0.629015	0.662753	0.0331099	0.222773	0.542094	0.430918	0.470413	0.795687	0.753185	0.295316	0.636233	1.18614	0.350227	0.625223	0.576419	0.416291	0.593347	0.249053	0.419526	0.451813	0.0310096	0.390283	0.576645	1.10618	0.474343	0.227324	1.16714	0.587937	0.258126	1.19292	0.665363	1.11379	0.0797368	-0.323217	0.651019	0.740489	0.0174409	0.779883	1.11158	0.120469	0.622116	1.37127	0.110759	0.700642	1.24581	-0.19953	0.493467	1.3979	0.22283	0.603298	1.29719	-0.546915	0.691384	1.28335	-0.3474	1.17163	0.0151085	-0.273493	0.889908	0.416565	-0.186371	0.816564	0.801129	0.0425943	0.65369	1.23475	0.0752483	0.751387	0.588581	-0.103468	1.02674	0.252484	-0.269807	0.922353	0.0220584	-0.360919	0.677944	1.23662	-0.0994651	0.56863	1.30264	-0.45409	0.653031	1.32068	-0.485162	0.534958	0.973519	0.168635	0.799632	0.903506	0.188344
502	170.039	0.68279	1.23183	0.17971	0.566823	1.13791	0.188957	0.621178	0.0810111	0.330269	0.656575	0.691127	0.28358	0.696102	1.37876	0.183561	0.494689	1.06007	0.562453	0.555995	1.40277	0.305196	0.225106	1.24075	0.622918	0.372413	1.12059	0.630141	0.662754	0.0331062	0.222774	0.541677	0.430719	0.47071	0.795209	0.753686	0.2959	0.636002	1.18626	0.350948	0.624649	0.576403	0.416832	0.59313	0.248953	0.419671	0.451815	0.0310124	0.390265	0.576104	1.10655	0.475014	0.226054	1.16654	0.589744	0.257038	1.19222	0.667129	1.11398	0.0797537	-0.323226	0.65054	0.740652	0.0179694	0.779603	1.11183	0.121124	0.62172	1.37167	0.111577	0.700616	1.24582	-0.199068	0.493192	1.39812	0.223836	0.604268	1.29642	-0.546847	0.691711	1.28302	-0.347071	1.1717	0.0150696	-0.273536	0.891946	0.417255	-0.184509	0.816036	0.801347	0.0431079	0.653459	1.23506	0.0757919	0.75185	0.58863	-0.102485	1.02803	0.252862	-0.268799	0.922352	0.0221491	-0.360867	0.677818	1.23675	-0.098967	0.569277	1.3021	-0.454137	0.653806	1.32004	-0.485022	0.534594	0.973889	0.169213	0.799344	0.903732	0.189009
503	170.059	0.682631	1.23215	0.180305	0.566668	1.13829	0.189546	0.621138	0.0810102	0.330241	0.65612	0.691509	0.284105	0.69582	1.37919	0.184227	0.494062	1.06076	0.562855	0.555822	1.40301	0.306023	0.224225	1.24	0.624833	0.371615	1.1205	0.631211	0.662757	0.0330979	0.222776	0.541286	0.430573	0.470924	0.79477	0.7542	0.296374	0.635783	1.18638	0.351576	0.624099	0.576432	0.417268	0.592921	0.248878	0.419754	0.451815	0.0310153	0.390249	0.575585	1.10694	0.475602	0.224822	1.16592	0.591513	0.255983	1.19146	0.668869	1.11418	0.0797678	-0.323242	0.650121	0.74082	0.0183771	0.779353	1.1121	0.121687	0.621373	1.37207	0.11231	0.700551	1.24582	-0.198716	0.49295	1.39834	0.224721	0.60525	1.2956	-0.546906	0.692029	1.28267	-0.346867	1.17181	0.0150586	-0.273528	0.893908	0.417932	-0.182816	0.815565	0.801567	0.0435093	0.65324	1.23537	0.0762484	0.752335	0.588698	-0.101641	1.02928	0.253229	-0.267884	0.922339	0.0222196	-0.360798	0.677677	1.2369	-0.0985659	0.569926	1.30152	-0.454316	0.654597	1.31933	-0.485006	0.534276	0.974259	0.169691	0.799098	0.903977	0.189558
504	170.079	0.682504	1.23247	0.180804	0.566545	1.13865	0.190031	0.621069	0.080939	0.330152	0.655692	0.691892	0.284509	0.695569	1.37962	0.184818	0.493472	1.06147	0.563155	0.555652	1.40324	0.306746	0.223352	1.23922	0.626745	0.370853	1.12039	0.632207	0.662763	0.0330846	0.222779	0.540913	0.430477	0.471064	0.794357	0.754702	0.296733	0.635585	1.18649	0.352095	0.623566	0.576502	0.417601	0.592726	0.248832	0.419779	0.451813	0.0310188	0.390236	0.575093	1.10734	0.476082	0.223629	1.16529	0.593223	0.254964	1.19066	0.670574	1.11439	0.0797777	-0.323266	0.649745	0.740995	0.0186448	0.779143	1.11238	0.122153	0.621073	1.37247	0.112955	0.700458	1.24583	-0.198477	0.492738	1.39856	0.225484	0.606204	1.29475	-0.547076	0.692328	1.2823	-0.346778	1.17192	0.0150614	-0.273494	0.895827	0.418605	-0.18127	0.81515	0.801781	0.0438048	0.653042	1.23568	0.0766031	0.752855	0.588797	-0.100946	1.03051	0.25359	-0.267049	0.922323	0.0222732	-0.360721	0.677534	1.23704	-0.0982698	0.570547	1.30091	-0.454609	0.655369	1.3186	-0.485095	0.534011	0.974625	0.170064	0.798888	0.904228	0.189988
505	170.099	0.682414	1.23278	0.181194	0.566458	1.13899	0.190409	0.620993	0.0808343	0.330041	0.655282	0.692267	0.284789	0.69535	1.38004	0.185323	0.492923	1.0622	0.563336	0.555494	1.40343	0.307366	0.222497	1.23843	0.62863	0.370127	1.12027	0.633111	0.662772	0.0330686	0.222783	0.540554	0.430422	0.471143	0.793963	0.755179	0.296971	0.635424	1.18661	0.35249	0.623051	0.576606	0.417838	0.592546	0.248811	0.419755	0.45181	0.0310221	0.390227	0.574635	1.10775	0.476435	0.222478	1.16467	0.594854	0.253983	1.18981	0.672223	1.11461	0.079784	-0.323298	0.649386	0.741176	0.0187663	0.778978	1.11265	0.122512	0.620815	1.37287	0.113509	0.700349	1.24582	-0.198349	0.492553	1.39875	0.226132	0.607096	1.29392	-0.547341	0.692601	1.28195	-0.346791	1.17203	0.0150612	-0.273465	0.897734	0.419281	-0.179839	0.814772	0.80198	0.0439961	0.652872	1.23599	0.0768427	0.753402	0.588926	-0.100397	1.03175	0.25395	-0.266272	0.922313	0.0223153	-0.360642	0.677396	1.23718	-0.0980855	0.57112	1.30029	-0.454995	0.656088	1.31788	-0.485268	0.533795	0.974987	0.170326	0.798712	0.904476	0.190297
506	170.119	0.682363	1.23309	0.181466	0.56641	1.13932	0.190678	0.620931	0.0807447	0.32995	0.654886	0.692634	0.284957	0.695164	1.38047	0.185725	0.492417	1.06295	0.563388	0.555363	1.40361	0.307883	0.221668	1.23763	0.630449	0.369442	1.12014	0.633904	0.662782	0.0330545	0.222788	0.540209	0.430395	0.471168	0.79358	0.75563	0.297088	0.635312	1.18673	0.352754	0.62256	0.576732	0.417991	0.592372	0.248812	0.419686	0.451806	0.0310246	0.390223	0.574217	1.10817	0.476653	0.221367	1.16404	0.596386	0.253044	1.18895	0.673788	1.11486	0.0797897	-0.323336	0.649015	0.741358	0.0187535	0.778853	1.11292	0.122753	0.620591	1.37329	0.113967	0.700244	1.24582	-0.198327	0.492396	1.39893	0.226675	0.607905	1.29313	-0.547686	0.692844	1.28163	-0.346893	1.1721	0.0150437	-0.27347	0.899642	0.419962	-0.178497	0.814406	0.802161	0.0440811	0.652737	1.23628	0.0769605	0.75395	0.589068	-0.0999781	1.03302	0.254316	-0.265533	0.922316	0.02235	-0.360572	0.677272	1.23731	-0.0980156	0.57163	1.2997	-0.455455	0.656732	1.31719	-0.485508	0.533618	0.975343	0.170479	0.798574	0.904716	0.190487
507	170.139	0.682348	1.23338	0.181619	0.566398	1.13964	0.19084	0.620893	0.0807106	0.329912	0.654497	0.692999	0.285033	0.695012	1.38091	0.186013	0.491954	1.06374	0.563312	0.555274	1.40377	0.308298	0.220867	1.23685	0.632162	0.368798	1.12003	0.634578	0.662792	0.0330472	0.222792	0.539877	0.430386	0.471144	0.793208	0.75607	0.297094	0.635263	1.18686	0.352889	0.622096	0.57687	0.418074	0.592187	0.248831	0.419576	0.451802	0.0310258	0.390222	0.573846	1.10862	0.476739	0.220296	1.16343	0.597807	0.252148	1.18809	0.675244	1.11512	0.0797999	-0.323379	0.648613	0.741532	0.0186367	0.778756	1.11316	0.122873	0.620394	1.37371	0.114323	0.700155	1.24583	-0.1984	0.49227	1.3991	0.227123	0.60862	1.29239	-0.548101	0.693056	1.28133	-0.347072	1.17213	0.0150027	-0.273525	0.901539	0.420647	-0.177224	0.814023	0.802325	0.0440584	0.652636	1.23658	0.0769586	0.754463	0.589198	-0.0996624	1.03432	0.254692	-0.264815	0.922331	0.0223788	-0.360516	0.677165	1.23743	-0.0980578	0.572075	1.29914	-0.455974	0.657292	1.31655	-0.48581	0.533464	0.975698	0.170529	0.79848	0.904952	0.190564
508	170.159	0.682365	1.23369	0.181657	0.566419	1.13996	0.190902	0.620881	0.0807472	0.329937	0.654117	0.69338	0.285046	0.694897	1.38136	0.186178	0.491531	1.0646	0.563116	0.555242	1.40395	0.30861	0.220092	1.2361	0.633744	0.368197	1.11998	0.635132	0.662799	0.0330503	0.222791	0.539558	0.430386	0.471072	0.792847	0.756524	0.297005	0.635279	1.18701	0.352904	0.621658	0.577016	0.418102	0.591972	0.248859	0.419424	0.451799	0.0310256	0.390223	0.573522	1.10909	0.476708	0.219263	1.16285	0.599113	0.251293	1.18727	0.676574	1.11538	0.0798196	-0.323421	0.648177	0.741693	0.0184564	0.778676	1.1134	0.122873	0.620224	1.37414	0.114565	0.700086	1.24585	-0.198556	0.492178	1.39928	0.227482	0.609244	1.2917	-0.54858	0.693234	1.28106	-0.347326	1.17211	0.0149434	-0.273624	0.903393	0.421329	-0.176016	0.813608	0.802474	0.0439321	0.652566	1.23687	0.0768458	0.754913	0.589299	-0.0994225	1.03563	0.255079	-0.264114	0.922355	0.0224007	-0.360477	0.67707	1.23754	-0.098205	0.572458	1.29862	-0.456546	0.657771	1.31597	-0.486176	0.533321	0.976059	0.17049	0.798426	0.905194	0.190537
509	170.179	0.682407	1.234	0.181591	0.566465	1.14031	0.19087	0.620882	0.0808416	0.330013	0.653748	0.69379	0.285022	0.69482	1.38181	0.186214	0.491143	1.06552	0.562816	0.555276	1.40417	0.308815	0.219343	1.23539	0.635181	0.367635	1.11999	0.635574	0.662804	0.0330643	0.222785	0.539249	0.430393	0.47095	0.792503	0.757016	0.296849	0.635354	1.18717	0.352812	0.621238	0.577172	0.418086	0.591712	0.248891	0.41923	0.451798	0.0310243	0.390223	0.573242	1.10962	0.476578	0.218268	1.16229	0.600316	0.250477	1.18651	0.677776	1.11563	0.0798523	-0.323455	0.647724	0.741837	0.01825	0.778602	1.11364	0.122762	0.620083	1.37457	0.114682	0.700032	1.2459	-0.198792	0.492126	1.39949	0.227753	0.609785	1.29106	-0.549124	0.693376	1.28082	-0.347654	1.17206	0.0148809	-0.273737	0.905154	0.421992	-0.174883	0.813162	0.802615	0.0437153	0.652518	1.23717	0.0766341	0.755288	0.589368	-0.0992372	1.03691	0.25547	-0.263435	0.92238	0.0224141	-0.360452	0.676981	1.23765	-0.0984485	0.572787	1.29815	-0.457173	0.65818	1.31543	-0.486618	0.533181	0.976431	0.170376	0.798407	0.90545	0.190418
510	170.199	0.682466	1.23432	0.181434	0.566526	1.14068	0.190755	0.62088	0.0809641	0.330111	0.653394	0.694237	0.284975	0.69478	1.38226	0.186121	0.490782	1.06652	0.562433	0.55538	1.40443	0.308913	0.218624	1.23474	0.636479	0.367111	1.12009	0.635922	0.662805	0.0330871	0.222773	0.538948	0.430411	0.470775	0.792182	0.757557	0.296649	0.635472	1.18735	0.352629	0.620828	0.577343	0.41803	0.591402	0.248924	0.418996	0.451798	0.0310219	0.390223	0.572998	1.11019	0.476368	0.21731	1.16179	0.601434	0.2497	1.18582	0.678858	1.11585	0.0798971	-0.323477	0.647284	0.741965	0.0180386	0.77853	1.11388	0.122553	0.619973	1.37499	0.114669	0.699974	1.24596	-0.199108	0.492118	1.39974	0.227931	0.610255	1.29045	-0.549734	0.693478	1.2806	-0.348062	1.17201	0.014833	-0.273829	0.906772	0.422619	-0.173843	0.812708	0.802754	0.0434285	0.652478	1.23747	0.0763344	0.755598	0.589414	-0.0990969	1.03812	0.255853	-0.262793	0.922401	0.0224189	-0.36044	0.676886	1.23778	-0.0987798	0.573067	1.29771	-0.45786	0.65853	1.31494	-0.487148	0.533046	0.976816	0.170199	0.798413	0.905726	0.190219
511	170.219	0.68254	1.23466	0.181198	0.566595	1.14107	0.190564	0.620862	0.0810868	0.330206	0.653062	0.694722	0.284906	0.694775	1.38269	0.185906	0.490439	1.0676	0.561988	0.555546	1.40475	0.308902	0.217945	1.23415	0.637653	0.366622	1.12028	0.636196	0.662802	0.0331155	0.222756	0.538656	0.430449	0.470548	0.791889	0.758145	0.296424	0.635612	1.18755	0.352364	0.620425	0.577538	0.417936	0.591053	0.24896	0.418727	0.451799	0.0310184	0.390221	0.572782	1.11083	0.476091	0.216392	1.16133	0.602491	0.248963	1.18522	0.679839	1.11604	0.0799494	-0.323486	0.646888	0.742083	0.0178207	0.778461	1.11415	0.12226	0.619891	1.37539	0.114532	0.699892	1.24604	-0.199507	0.492156	1.40004	0.228012	0.610658	1.28987	-0.550412	0.69353	1.28041	-0.348552	1.17199	0.014813	-0.273871	0.90821	0.42319	-0.17292	0.812283	0.802894	0.0430942	0.652435	1.23778	0.0759531	0.755868	0.589457	-0.0990012	1.03921	0.256211	-0.262206	0.922417	0.0224177	-0.360438	0.676778	1.23792	-0.0991917	0.573296	1.29731	-0.458614	0.658822	1.31448	-0.487767	0.532921	0.977211	0.169962	0.798442	0.906027	0.189956
